<svg width="81" height="63" viewBox="0 0 81 63" fill="none" xmlns="http://www.w3.org/2000/svg">
<path d="M78.9682 31.6978C78.9682 39.76 74.7228 47.1359 67.7076 52.5322C60.6912 57.9294 50.9494 61.3 40.1429 61.3C29.3364 61.3 19.5947 57.9294 12.5782 52.5322C5.56307 47.1359 1.31772 39.76 1.31772 31.6978C1.31772 23.6356 5.56307 16.2596 12.5782 10.8634C19.5947 5.46612 29.3364 2.09549 40.1429 2.09549C50.9494 2.09549 60.6912 5.46612 67.7076 10.8634C74.7228 16.2596 78.9682 23.6356 78.9682 31.6978Z" fill="#000055" stroke="#FF267E" stroke-width="2.2818"/>
<path d="M36.9651 43.3621V34.3878H27.6006V29.1853H36.9651V20.0376H42.3843V29.1853H51.7055V34.3878H42.3843V43.3621H36.9651Z" fill="#FF267E"/>
</svg>
